# xmcd
#
# Track frame offsets: 
#        150
#        18135
#        37905
#        57467
#        76240
#        91538
#        107044
#        123992
#        148021
#        168320
#        190712
#
# Disc length: 2798 seconds
#
# Revision: 0
# Processed by: cddbd v1.5.2PL0 Copyright (c) Steve Scherf et al.
# Submitted via: ExactAudioCopyFreeDBPlugin 1.0
#
DISCID=7d0aec0b
DTITLE=Lloyd - Tru LP
DYEAR=2018
DGENRE=R&B
TTITLE0=Appreciation Day (feat. Khujo Goodie)
TTITLE1=Blown (feat. Curren$y)
TTITLE2=Holding (feat. Lil Wayne)
TTITLE3=My Bestie (feat. Sevyn Streeter)
TTITLE4=Caramel
TTITLE5=Excited
TTITLE6=Heavenly Body (feat. Rick Ross)
TTITLE7=Porcelain
TTITLE8=Infinity (feat. River)
TTITLE9=Lil Sis (feat. The Spelman Women’s Choir)
TTITLE10=Tru
EXTD=
EXTT0=
EXTT1=
EXTT2=
EXTT3=
EXTT4=
EXTT5=
EXTT6=
EXTT7=
EXTT8=
EXTT9=
EXTT10=
PLAYORDER=
